# xmcd
#
# Track frame offsets: 
#        150
#        9822
#        19189
#        29857
#        39781
#        50134
#        62935
#        74386
#        85127
#        95597
#        107310
#        116812
#        128654
#        137667
#        150018
#        161465
#        175039
#        186646
#        198738
#        209216
#        219819
#        231448
#        241819
#        251846
#        264020
#
# Disc length: 3670 seconds
#
# Revision: 0
# Processed by: cddbd v1.5.2PL0 Copyright (c) Steve Scherf et al.
# Submitted via: ExactAudioCopy v0.99pb5
#
DISCID=5c0e5419
DTITLE=Various Artist - Nashville Sound - CD3
DYEAR=2014
DGENRE=Country
TTITLE0=Faron Young - Hello Walls (1961)
TTITLE1=Burl Ives - A Little Bitty Tear (1961)
TTITLE2=George Jones - Tender Years (1961)
TTITLE3=Connie Hall - I'm As Lonely As Anyone Can Be (1961)
TTITLE4=Hank Locklin - You're The Reason (1961)
TTITLE5=Billy Walker - Funny How Time Slips Away (1962)
TTITLE6=Don Gibson - Sea Of Heartbreak (1961)
TTITLE7=Claude Gray - My Ears Should Burn (When Fools Are Talked About
TTITLE7=) (1961)
TTITLE8=Leroy Van Dyke - Walk On By (1961)
TTITLE9=Bob Moore - Mexico (1961)
TTITLE10=Slim Whitman - The Old Spinning Wheel (1961)
TTITLE11=Slim Whitman - Blue Eyes Crying In The Rain (1961)
TTITLE12=Connie Hall - Love's Been Good To Me (1961)
TTITLE13=Patsy Cline - Crazy (1961)
TTITLE14=Willie Nelson - Touch Me (1962)
TTITLE15=Jimmy Dean - Big Bad John (1961)
TTITLE16=Hank Locklin - Happy Journey (1961)
TTITLE17=Stonewall Jackson - A Wound Time Can't Erase (1962)
TTITLE18=Hawkshaw Hawkins - I Can't Seem To Say Goodbye (1961)
TTITLE19=Don Gibson - Lonesome Number One (1961)
TTITLE20=Porter Wagoner - Misery Loves Company (1961)
TTITLE21=Jim Reeves - Losing Your Love (1962)
TTITLE22=Billy Walker - Charlie's Shoes (1962)
TTITLE23=Willie Nelson and Shirley Collie - Willingly (1961)
TTITLE24=Patti Page - Go On Home (1962)
EXTD=
EXTT0=
EXTT1=
EXTT2=
EXTT3=
EXTT4=
EXTT5=
EXTT6=
EXTT7=
EXTT8=
EXTT9=
EXTT10=
EXTT11=
EXTT12=
EXTT13=
EXTT14=
EXTT15=
EXTT16=
EXTT17=
EXTT18=
EXTT19=
EXTT20=
EXTT21=
EXTT22=
EXTT23=
EXTT24=
PLAYORDER=
